# xmcd
#
# Track frame offsets:
#	225
#	12609
#	24712
#	43082
#	57657
#	73545
#	88093
#	102857
#	113522
#	124500
#	136672
#	152557
#	168432
#	184270
#	200597
#	218429
#	230817
#	248254
#	264928
#	284581
#
# Disc length: 3997 seconds
#
# Revision: 0
# Processed by: cddbd v1.5.2PL0 Copyright (c) Steve Scherf et al.
# Submitted via: EZCDAudioConverter 1.1.0.1
#
DISCID=180f9a14
DTITLE=Country Forever
DYEAR=2019
DGENRE=Country
TTITLE0=Dolly Parton - 9 to 5
TTITLE1=Tammy Wynette - Stand by Your Man
TTITLE2=Don Mclean - American Pie
TTITLE3=Glen Cambell - Rhinestone Cowboy
TTITLE4=Kenny Rogers - The Gambler
TTITLE5=Dr. Hook - A Little Bit More
TTITLE6=Olivia Newton John - Take Me Home, Country Roads
TTITLE7=Loretta Lynn - These Boots are Made For Walking
TTITLE8=Roger Miller - King of the Road
TTITLE9=Jonny Cash - I Walk the Line
TTITLE10=Willie Nelson - Always On My Mind
TTITLE11=Billie Jo Spears - Blanket On the Ground
TTITLE12=The Band - The Night They Drove Old Dixxie Down
TTITLE13=John Denver - Leaving On A Jet Plane
TTITLE14=Linda Ronesstadt - Blue Bayou
TTITLE15=Patsy Cline ft The Jourdanaires - Crazy
TTITLE16=Alison Krause and Union Station - When You Say Nothing At All
TTITLE17=Shania Twain - That Don't Impress Me Much
TTITLE18=The Mavericks - Dance The Night Away
TTITLE19=Billy Ray Cyrus - Achy Breaky Heart
EXTD=
EXTT0=
EXTT1=
EXTT2=
EXTT3=
EXTT4=
EXTT5=
EXTT6=
EXTT7=
EXTT8=
EXTT9=
EXTT10=
EXTT11=
EXTT12=
EXTT13=
EXTT14=
EXTT15=
EXTT16=
EXTT17=
EXTT18=
EXTT19=
PLAYORDER=
